# xmcd
#
# Track frame offsets:
#	150
#	13892
#	26255
#	35452
#	44522
#	54200
#	64742
#	73962
#	85695
#	95365
#	109697
#	120497
#	129120
#	145770
#
# Disc length: 2086 seconds
#
# Revision: 1
# Processed by: cddbd v1.5.1PL0 Copyright (c) Steve Scherf et al.
# Submitted via: EasyCDDAExtractor 7.0.9.1
#
DISCID=b208240e
DTITLE=Anastacia - Voce e meu xamego
DYEAR=1997
DGENRE=Forró
TTITLE0=Voce e meu xamego
TTITLE1=Forro do seu vava
TTITLE2=Festa do palhocao]
TTITLE3=Oi eu espiando
TTITLE4=Nao vou la
TTITLE5=Caruaru, capital do forro
TTITLE6=Chade cadeira
TTITLE7=Forro do ze lagoa
TTITLE8=Tenho sede
TTITLE9=Forro do ze perrita
TTITLE10=Ate a guela
TTITLE11=La vai forro
TTITLE12=O autentico do leite
TTITLE13=Homenagem a luiz gonzaga
EXTD=
EXTT0=
EXTT1=
EXTT2=
EXTT3=
EXTT4=
EXTT5=
EXTT6=
EXTT7=
EXTT8=
EXTT9=
EXTT10=
EXTT11=
EXTT12=
EXTT13=
PLAYORDER=
